<svg class="icon__svg" preserveAspectRatio="xMidYMid meet" viewBox="0 0 60 60" xmlns="http://www.w3.org/2000/svg" xmlns:xlink="http://www.w3.org/1999/xlink" version="1.1">
  <title>how it works</title>
  <g id="icon_howitworks">
    <path class="cls-1" d="M33.62,60H26.38a4.24,4.24,0,0,1-4.27-4.19V51a21.33,21.33,0,0,1-2.05-.87l-4.22,4.15a4.32,4.32,0,0,1-6,0l-5.12-5a4.15,4.15,0,0,1,0-5.93l4.46-4.38c-.18-.39-.34-.78-.49-1.17H4.27A4.24,4.24,0,0,1,0,33.55v-7.1a4.24,4.24,0,0,1,4.27-4.2H8.65c.15-.39.31-.78.49-1.17L4.4,16.43a4.15,4.15,0,0,1,0-5.93l5.12-5a4.35,4.35,0,0,1,6,0l4.5,4.43A21.33,21.33,0,0,1,22.11,9V4.19A4.24,4.24,0,0,1,26.38,0h7.24a4.24,4.24,0,0,1,4.27,4.19V9l1.19.48L43.47,5.2a4.34,4.34,0,0,1,6,0l5.11,5a4.15,4.15,0,0,1,0,5.94l-4.15,4.08c.33.66.62,1.33.88,2h4.38A4.24,4.24,0,0,1,60,26.45v7.1a4.24,4.24,0,0,1-4.27,4.2H51.35c-.26.68-.55,1.35-.88,2l3.87,3.81a4.14,4.14,0,0,1,0,5.93l-5.11,5a4.35,4.35,0,0,1-6,0l-4.11-4L37.89,51v4.84A4.24,4.24,0,0,1,33.62,60ZM19.78,46.81a1.57,1.57,0,0,1,.72.18,20.1,20.1,0,0,0,3.57,1.51,1.48,1.48,0,0,1,1.06,1.41v5.9A1.25,1.25,0,0,0,26.38,57h7.24a1.25,1.25,0,0,0,1.25-1.23v-5.9a1.48,1.48,0,0,1,1.06-1.41,20.17,20.17,0,0,0,2.8-1.12,1.54,1.54,0,0,1,1.74.28l4.85,4.77a1.28,1.28,0,0,0,1.78,0l5.11-5a1.21,1.21,0,0,0,0-1.74l-4.66-4.58a1.47,1.47,0,0,1-.25-1.76,19,19,0,0,0,1.53-3.51,1.51,1.51,0,0,1,1.44-1h5.46A1.24,1.24,0,0,0,57,33.55v-7.1a1.24,1.24,0,0,0-1.25-1.23H50.27a1.51,1.51,0,0,1-1.44-1,19,19,0,0,0-1.53-3.51,1.47,1.47,0,0,1,.25-1.76l4.94-4.85a1.21,1.21,0,0,0,0-1.74l-5.12-5a1.27,1.27,0,0,0-1.77,0l-5.13,5a1.54,1.54,0,0,1-1.74.28,20.17,20.17,0,0,0-2.8-1.12,1.48,1.48,0,0,1-1.06-1.41V4.19A1.25,1.25,0,0,0,33.62,3H26.38a1.25,1.25,0,0,0-1.25,1.23v5.9a1.48,1.48,0,0,1-1.06,1.41A20.1,20.1,0,0,0,20.5,13a1.51,1.51,0,0,1-1.79-.25L13.42,7.57a1.27,1.27,0,0,0-1.77,0l-5.11,5a1.21,1.21,0,0,0,0,1.74L12,19.72a1.45,1.45,0,0,1,.28,1.7,19.33,19.33,0,0,0-1.13,2.76,1.51,1.51,0,0,1-1.44,1H4.27A1.24,1.24,0,0,0,3,26.45v7.1a1.24,1.24,0,0,0,1.25,1.23H9.73a1.51,1.51,0,0,1,1.44,1,19.33,19.33,0,0,0,1.13,2.76,1.45,1.45,0,0,1-.28,1.7L6.81,45.39a1.24,1.24,0,0,0,0,1.75l5.12,5a1.27,1.27,0,0,0,1.77,0l5-4.92A1.55,1.55,0,0,1,19.78,46.81ZM30,39.71A9.71,9.71,0,1,1,39.89,30,9.82,9.82,0,0,1,30,39.71Zm0-16.46A6.75,6.75,0,1,0,36.87,30,6.82,6.82,0,0,0,30,23.25Z"/>
  </g>
</svg>
