<svg class="icon__svg" preserveAspectRatio="xMidYMid meet" viewBox="0 0 60 60" xmlns="http://www.w3.org/2000/svg" xmlns:xlink="http://www.w3.org/1999/xlink" version="1.1">
  <title>questionmark</title>
  <g id="icon_questionmark">
    <path class="cls-1" d="M30,0A30,30,0,1,0,60,30,30,30,0,0,0,30,0Zm0,57A27,27,0,1,1,57,30,27,27,0,0,1,30,57Z"/>
    <path class="cls-1" d="M30.42,11.1c-10,0-12.42,8-12.42,10.4a3.23,3.23,0,0,0,3.15,3.11c2.27,0,2.86-1.89,3.16-2.8.74-2.3,1.77-5.41,6-5.41a4.82,4.82,0,0,1,5.13,4.69c0,1.79-1.09,3.06-3.41,5.15-3.1,2.81-5.51,5-5.51,9.23a5.25,5.25,0,0,0,.39,2.2,3.09,3.09,0,0,0,2.56,1.43,2.76,2.76,0,0,0,2.86-2.61c.49-2.5.64-3.11,2.81-5.1C40.23,26.6,42,25,42,21,42,15.79,37.61,11.1,30.42,11.1Z"/>
    <path class="cls-1" d="M29.66,41.23a4,4,0,1,0,4,4A4,4,0,0,0,29.66,41.23Z"/>
  </g>
</svg>
