<svg class="icon__svg" preserveAspectRatio="xMidYMid meet" viewBox="0 0 60 60" xmlns="http://www.w3.org/2000/svg" xmlns:xlink="http://www.w3.org/1999/xlink" version="1.1">
  <title>profile</title>
  <g id="icon_profile">
    <circle class="cls-1" cx="30" cy="25" r="12" transform="translate(-8.89 28.54) rotate(-45)"/>
    <path class="cls-2" d="M44.3,3.62a30.46,30.46,0,0,0-5.38-2.27C38,1.06,37,.81,36,.61A29.92,29.92,0,0,0,8.8,8.8c-.34.34-.67.69-1,1a30.26,30.26,0,0,0-2.67,3.4A29.7,29.7,0,0,0,.35,25.44a27.33,27.33,0,0,0-.31,3c0,.51,0,1,0,1.54s0,1,0,1.54a27.33,27.33,0,0,0,.31,3,29.7,29.7,0,0,0,4.78,12.2,30.26,30.26,0,0,0,2.67,3.4c.33.35.66.7,1,1A30,30,0,0,0,36,59.39c1-.2,1.94-.45,2.88-.74a30.46,30.46,0,0,0,5.38-2.27,30,30,0,0,0,0-52.76ZM30,40.11a21.94,21.94,0,0,0-18.22,9.75A27,27,0,1,1,57,30a26.86,26.86,0,0,1-8.78,19.89A21.94,21.94,0,0,0,30,40.11Z"/>
  </g>
</svg>
