<svg class="icon__svg" preserveAspectRatio="xMidYMid meet" viewBox="0 0 60 60" xmlns="http://www.w3.org/2000/svg" xmlns:xlink="http://www.w3.org/1999/xlink" version="1.1">
  <title>envelope</title>
  <g id="icon_envelope">
  <path class="cls-1" d="M54.37,7.52A5.62,5.62,0,0,1,60,13.13V46.86a5.6,5.6,0,0,1-5.58,5.62H5.59a5.36,5.36,0,0,1-4-1.63,5.38,5.38,0,0,1-1.61-4V13.15a5.39,5.39,0,0,1,1.64-4,5.38,5.38,0,0,1,4-1.64Zm0,5.63H5.59v4.79q4.07,3.27,15.8,12.41l1,.95a29.25,29.25,0,0,0,3.75,2.8A7.13,7.13,0,0,0,30,35.62a7,7,0,0,0,3.74-1.52,30.06,30.06,0,0,0,3.75-2.78l1-.95q11.74-9,15.88-12.43ZM5.59,46.86H54.37V25.09L40.75,35.86A33.74,33.74,0,0,1,36,39.37a11.76,11.76,0,0,1-6,1.87,12.36,12.36,0,0,1-6.1-1.87,47.07,47.07,0,0,1-4.79-3.51L5.59,25.09Z"/>
  </g>
</svg>