<svg class="icon__svg" preserveAspectRatio="xMidYMid meet" viewBox="0 0 60 60" xmlns="http://www.w3.org/2000/svg" xmlns:xlink="http://www.w3.org/1999/xlink" version="1.1">
  <g>
    <path class="st1" d="M30,0c5.3,0,10.5,1.4,15,4.1c4.5,2.6,8.3,6.4,11,10.9c2.7,4.5,4.1,9.7,4.1,15c0,5.3-1.4,10.5-4.1,15
      c-2.6,4.5-6.4,8.3-10.9,10.9c-4.5,2.7-9.7,4.1-15,4.1c-5.3,0-10.5-1.4-15-4.1C10.5,53.3,6.7,49.5,4.1,45C1.4,40.5,0,35.3,0,30
      c0-5.3,1.4-10.5,4.1-15C6.7,10.5,10.5,6.7,15,4.1C19.6,1.4,24.7,0,30,0z M30,54.2c4.3,0,8.5-1.1,12.2-3.3c3.6-2.1,6.7-5.2,8.8-8.9
      c2.2-3.7,3.3-7.8,3.3-12.1c0-4.2-1.1-8.4-3.3-12.1c-2.1-3.7-5.1-6.7-8.8-8.8c-7.5-4.3-16.7-4.3-24.2,0c-3.7,2.1-6.7,5.2-8.8,8.8
      c-4.4,7.5-4.4,16.7,0,24.2c2.1,3.7,5.2,6.7,8.8,8.8C21.6,53.1,25.8,54.2,30,54.2z M40.1,36.9c0.9-1.2,2.7-1.5,3.9-0.6
      c0.1,0,0.1,0.1,0.2,0.1c0.6,0.5,1,1.2,1,2c0.1,0.7-0.1,1.5-0.6,2c-1.8,2.1-4.1,3.9-6.6,5.1c-5.1,2.4-11,2.4-16.1,0
      c-2.5-1.2-4.8-2.9-6.6-5.1c-0.5-0.6-0.7-1.3-0.6-2c0.1-0.8,0.4-1.5,1-2c0.6-0.5,1.4-0.8,2.1-0.7c0.8,0,1.5,0.4,2,1.1
      c1.3,1.4,2.8,2.6,4.6,3.4c3.5,1.7,7.6,1.7,11.2,0C37.4,39.5,38.9,38.3,40.1,36.9L40.1,36.9z M20.3,28.1c-2.1,0-3.9-1.7-3.9-3.8
      c0-1,0.4-2,1.1-2.8c1.4-1.5,3.8-1.5,5.3-0.1c0,0,0.1,0.1,0.1,0.1c1.5,1.5,1.5,3.9,0.1,5.4c0,0,0,0-0.1,0.1
      C22.3,27.7,21.4,28.1,20.3,28.1L20.3,28.1z M39.7,28.1c-2.1,0-3.9-1.7-3.9-3.8c0-1,0.4-2,1.1-2.8c1.5-1.5,3.9-1.5,5.4,0
      s1.5,3.9,0,5.4C41.7,27.7,40.7,28.1,39.7,28.1L39.7,28.1z"/>
  </g>
</svg>