<svg class="icon__svg" preserveAspectRatio="xMidYMid meet" viewBox="0 0 60 60" xmlns="http://www.w3.org/2000/svg" xmlns:xlink="http://www.w3.org/1999/xlink" version="1.1">
  <title>edit</title>
  <g id="icon_pencil">
  <path class="cls-1" d="M33.29,11.76a1.47,1.47,0,0,1,1-.46,1.09,1.09,0,0,1,.93.46l13.07,13a1.11,1.11,0,0,1,.47.94,1.42,1.42,0,0,1-.47,1L17.6,57.29,3.32,59.87a2.71,2.71,0,0,1-2.46-.82A2.69,2.69,0,0,1,0,56.61L2.58,42.35ZM10.35,49.59V44H6.13L4.72,51.46,8.47,55.2,16,53.8V49.59Zm4.2-9.8a1.63,1.63,0,0,0,1.18.46,1.55,1.55,0,0,0,1.17-.46l18-18a1.59,1.59,0,0,0,.48-1.16,1.61,1.61,0,0,0-.48-1.17,1.72,1.72,0,0,0-2.34,0l-18,18a1.72,1.72,0,0,0,0,2.34Zm43.8-23.12a5.38,5.38,0,0,0,1.65-4,5.38,5.38,0,0,0-1.65-4l-7-7a5.69,5.69,0,0,0-8,0L38,7.09a1.46,1.46,0,0,0-.47,1A1.13,1.13,0,0,0,38,9L51,22a1.09,1.09,0,0,0,.93.46,1.47,1.47,0,0,0,1-.46Z"/>
  </g>
</svg>