<svg class="icon__svg" preserveAspectRatio="xMidYMid meet" xmlns="http://www.w3.org/2000/svg" viewBox="0 0 60 60" xmlns:xlink="http://www.w3.org/1999/xlink" version="1.1">
  <title>x</title>
  <g id="icon_x">
    <path class="cls-1" d="M50.45,58.87a3.78,3.78,0,0,1-5.31,0L30,43.72,14.88,58.87a3.72,3.72,0,0,1-5.34,0L1.11,50.44a3.78,3.78,0,0,1,0-5.31L16.26,30,1.11,14.84A3.63,3.63,0,0,1,0,12.19,3.6,3.6,0,0,1,1.11,9.53L9.54,1.1a3.75,3.75,0,0,1,5.31,0L30,16.25,45.14,1.1a3.75,3.75,0,0,1,5.31,0l8.43,8.43a3.75,3.75,0,0,1,0,5.31L43.74,30,58.88,45.13a3.75,3.75,0,0,1,0,5.31Z"/>
  </g>
</svg>