<svg class="icon__svg" preserveAspectRatio="xMidYMid meet" viewBox="0 0 60 60" xmlns="http://www.w3.org/2000/svg" xmlns:xlink="http://www.w3.org/1999/xlink" version="1.1">
  <title>quiz</title>
  <g id="icon_quiz">
    <path class="cls-1" d="M54.41,3.79a5.38,5.38,0,0,1,4,1.64,5.41,5.41,0,0,1,1.61,4V50.6a5.61,5.61,0,0,1-5.59,5.61H5.59a5.38,5.38,0,0,1-4-1.64A5.41,5.41,0,0,1,0,50.6V9.41a5.37,5.37,0,0,1,1.64-4,5.39,5.39,0,0,1,4-1.64ZM53.66,50.6a.93.93,0,0,0,.75-.71V10.11a.68.68,0,0,0-.24-.47.6.6,0,0,0-.47-.23H6.33a.6.6,0,0,0-.47.23.68.68,0,0,0-.24.47V49.89a.68.68,0,0,0,.24.47.66.66,0,0,0,.47.23ZM19.21,18.77A4.19,4.19,0,0,0,15,14.56h0a4.2,4.2,0,0,0-4.22,4.18v0A4.18,4.18,0,0,0,15,23h0a4.18,4.18,0,0,0,4.21-4.18Zm0,11.23A4.19,4.19,0,0,0,15,25.79h0A4.22,4.22,0,0,0,10.78,30,4.29,4.29,0,0,0,12,33a4.24,4.24,0,0,0,6,0A4.07,4.07,0,0,0,19.21,30Zm0,11.23A4.2,4.2,0,0,0,15,37h0a4.22,4.22,0,1,0,0,8.43h0a4.2,4.2,0,0,0,4.21-4.19ZM48.7,17.36a1.38,1.38,0,0,0-1.42-1.42H23.9a1.38,1.38,0,0,0-1.43,1.42v2.78a1.4,1.4,0,0,0,1.36,1.43H47.29a1.38,1.38,0,0,0,1.45-1.33v-.1Zm0,11.24a1.32,1.32,0,0,0-.41-1,1.36,1.36,0,0,0-1-.41H23.9a1.4,1.4,0,0,0-1.43,1.43v2.8a1.4,1.4,0,0,0,.41,1,1.35,1.35,0,0,0,1,.4H47.29a1.38,1.38,0,0,0,1.42-1.42Zm0,11.23a1.32,1.32,0,0,0-.41-1,1.35,1.35,0,0,0-1-.4H23.9a1.38,1.38,0,0,0-1.43,1.42v2.8a1.4,1.4,0,0,0,1.43,1.43H47.29a1.36,1.36,0,0,0,1-.41,1.32,1.32,0,0,0,.41-1Z"/>
  </g>
</svg>