<svg class="icon__svg" preserveAspectRatio="xMidYMid meet" viewBox="0 0 60 60" xmlns="http://www.w3.org/2000/svg" xmlns:xlink="http://www.w3.org/1999/xlink" version="1.1">
  <title>star</title>
  <g id="icon_star">
  <path class="cls-1" d="M26.7,3.28a3.45,3.45,0,0,1,2-1.8,3.84,3.84,0,0,1,2.59,0,3.44,3.44,0,0,1,2,1.8l7.33,14.81L57,20.46a3.45,3.45,0,0,1,2.3,1.34A3.72,3.72,0,0,1,60,24.29a3.43,3.43,0,0,1-1,2.36L47,38.2l2.81,16.39a3.56,3.56,0,0,1-.51,2.52,3.3,3.3,0,0,1-2.09,1.52,3.45,3.45,0,0,1-2.59-.34L30,50.66,15.33,58.29a3.42,3.42,0,0,1-2.58.34,3.3,3.3,0,0,1-2.1-1.52,3.56,3.56,0,0,1-.51-2.52L13,38.2,1.05,26.68a3.48,3.48,0,0,1-1-2.36,3.86,3.86,0,0,1,.79-2.47A3.43,3.43,0,0,1,3,20.46l16.38-2.37Z"/>
  </g>
</svg>