<svg class="icon__svg" version="1.1" xmlns="http://www.w3.org/2000/svg" xmlns:xlink="http://www.w3.org/1999/xlink" x="0px" y="0px" viewBox="0 0 60 60" style="enable-background:new 0 0 60 60;" xml:space="preserve">
  <title>refresh</title>
  <path class="cls-1" d="M19.16,34.84a2.89,2.89,0,0,1,2.1,4.95l-5.07,5.08a20.5,20.5,0,0,0,6.47,4.06A20.31,20.31,0,0,0,49.74,35a1.37,1.37,0,0,1,1.44-1.08h6.89a1.46,1.46,0,0,1,1.46,1.46,1.62,1.62,0,0,1,0,.22A29.59,29.59,0,0,1,54,48a30.51,30.51,0,0,1-10.48,8.77A28.91,28.91,0,0,1,30.05,60,29.51,29.51,0,0,1,9.38,51.65L5,56a2.75,2.75,0,0,1-2.09.85A2.77,2.77,0,0,1,.84,56,2.82,2.82,0,0,1,0,54V37.74a2.86,2.86,0,0,1,2.83-2.9H19.16ZM37.47,11.06a20.37,20.37,0,0,0-27.12,14A1.39,1.39,0,0,1,8.9,26.15H2A1.39,1.39,0,0,1,.87,25.6a1.34,1.34,0,0,1-.3-1.14A29.44,29.44,0,0,1,6.12,12,30.68,30.68,0,0,1,16.61,3.22,29,29,0,0,1,30.05,0,29.48,29.48,0,0,1,50.7,8.4L55.05,4a2.9,2.9,0,0,1,5,2.1V22.25a2.88,2.88,0,0,1-2.86,2.91H40.92a2.9,2.9,0,0,1-2.1-4.95l5.08-5.08A20.94,20.94,0,0,0,37.47,11.06Z"/>
</svg>