<svg class="icon__svg" preserveAspectRatio="xMidYMid meet" viewBox="0 0 60 60" xmlns="http://www.w3.org/2000/svg" xmlns:xlink="http://www.w3.org/1999/xlink" version="1.1">
  <title>usa</title>
  <g id="icon_usa">
    <g class="st0">
      <path class="st1" d="M9.1,4.9V40c16.7,5.8,32.3-5.8,49,0V4.9C41.3-0.8,25.8,10.7,9.1,4.9z M27.3,15.4l0.4-1.3
        c0.2,0.4,0.2,0.7,0.4,1.1l1.3-0.3l-1,1c0.2,0.5,0.2,0.7,0.4,1.1l-1-0.5l-1,0.9l0.4-1.3l-1-0.6C26.5,15.5,26.8,15.5,27.3,15.4
        L27.3,15.4z M23.1,12c0.2-0.5,0.2-0.7,0.4-1.2l0.4,1.1c0.5-0.1,0.8-0.1,1.3-0.2l-1,0.9l0.4,1.1l-1-0.6c-0.4,0.3-0.6,0.5-1,0.8
        c0.2-0.5,0.2-0.7,0.4-1.2c-0.4-0.3-0.6-0.4-1-0.7C22.4,12.1,22.7,12,23.1,12L23.1,12z M23.1,19.7c0.2-0.5,0.2-0.8,0.4-1.3
        c0.2,0.5,0.2,0.7,0.4,1.2l1.3-0.2l-1,0.9l0.4,1.1c-0.4-0.2-0.6-0.4-1-0.6l-1,0.9c0.2-0.5,0.2-0.7,0.4-1.2l-1-0.7L23.1,19.7
        L23.1,19.7z M19.5,16.2l0.4-1.2c0.2,0.5,0.2,0.7,0.4,1.2c0.5,0,0.8,0,1.3-0.1c-0.4,0.3-0.6,0.5-1,0.8c0.2,0.5,0.2,0.7,0.4,1.2
        c-0.4-0.3-0.6-0.4-1-0.7l-1,0.7l0.3-1.2c-0.4-0.3-0.6-0.4-1-0.8C18.7,16.2,19,16.2,19.5,16.2L19.5,16.2z M15,11.8l0.4-1.1
        l0.4,1.3c0.5,0.1,0.8,0.1,1.3,0.1l-1,0.6l0.4,1.3l-1-0.9l-1,0.6c0.2-0.4,0.2-0.7,0.4-1.1l-1-0.9C14.3,11.7,14.5,11.8,15,11.8
        L15,11.8z M15,19.6l0.4-1.1c0.2,0.5,0.2,0.8,0.4,1.3c0.5,0.1,0.8,0.1,1.3,0.1l-1,0.6l0.4,1.2c-0.4-0.3-0.6-0.5-1-0.9
        c-0.4,0.2-0.6,0.3-1,0.6l0.4-1.1l-1-1C14.3,19.5,14.5,19.5,15,19.6L15,19.6z M55.5,36.4c-15-3.3-28.8,5.4-43.8,2v-2.8
        c15,3.3,28.8-5.4,43.8-2V36.4z M55.5,31c-15-3.3-28.8,5.4-43.8,2v-2.6c15,3.3,28.8-5.4,43.8-2V31z M55.5,25.8
        c-15-3.3-28.8,5.4-43.8,2v-2.7c15,3.3,28.8-5.4,43.8-2V25.8z M55.5,20.5c-7.9-1.8-14.6-0.7-22.4,1.1v-2.9
        c7.8-1.8,14.5-3,22.4-1.1V20.5z M55.5,14.9c-7.9-1.8-14.6-0.7-22.4,1.1v-2.7c7.8-1.8,14.5-3,22.4-1.1V14.9z M55.5,9.7
        C47.6,7.9,40.9,9,33.1,10.8V7.6c7.8-1.8,14.5-3,22.4-1.1L55.5,9.7z"/>
    </g>
  </g>
    <path class="st1" d="M6.1,0H4.5C3,0,1.9,1.2,1.9,2.7c0,1,0.6,1.9,1.4,2.4v55h4.2V5c1.3-0.7,1.7-2.4,1-3.6C8,0.5,7.1,0,6.1,0z"/>
</svg>
