<svg class="icon__svg" preserveAspectRatio="xMidYMid meet" viewBox="0 0 60 60" xmlns="http://www.w3.org/2000/svg" xmlns:xlink="http://www.w3.org/1999/xlink" version="1.1">
  <title>information</title>
  <g id="icon_information">
    <path class="cls-1" d="M30,0A30,30,0,1,0,60,30,30,30,0,0,0,30,0Zm0,57A27,27,0,1,1,57,30,27,27,0,0,1,30,57Z"/>
    <path class="cls-1" d="M27,12.32a3.61,3.61,0,0,1,2.87-1.21,3.91,3.91,0,0,1,3,1.2A4.05,4.05,0,0,1,34,15.17,3.84,3.84,0,0,1,32.83,18a4.06,4.06,0,0,1-3,1.1A3.73,3.73,0,0,1,27,18a4,4,0,0,1-1-2.82A4.25,4.25,0,0,1,27,12.32Z"/>
    <path class="cls-1" d="M30,49.66h0a4.23,4.23,0,0,1-3.93-4.41L26,26.1a4.21,4.21,0,0,1,4-4.44h.08a4.21,4.21,0,0,1,4,4.42V45.23A4.22,4.22,0,0,1,30,49.66Z"/>
  </g>
</svg>
