<svg class="icon__heart" preserveAspectRatio="xMidYMid meet" viewBox="0 0 60 60" xmlns="http://www.w3.org/2000/svg" xmlns:xlink="http://www.w3.org/1999/xlink" version="1.1">
  <title>heart</title>
  <g id="icon_heart">
  <path class="cls-1" d="M54.1,7.43a15.81,15.81,0,0,1,5.08,7.49,17,17,0,0,1,.4,9,15.46,15.46,0,0,1-4.26,7.79L32.72,55a3.7,3.7,0,0,1-5.23.17L27.32,55,4.68,31.79A16.2,16.2,0,0,1,.41,23.88a17.15,17.15,0,0,1,.41-9A15.81,15.81,0,0,1,5.9,7.43,14.76,14.76,0,0,1,13,4a15.77,15.77,0,0,1,7.83.58A16.67,16.67,0,0,1,27.64,9L30,11.29,32.32,9a16.54,16.54,0,0,1,6.81-4.37A15.81,15.81,0,0,1,47,4,14.7,14.7,0,0,1,54.1,7.43Z"/>
  </g>
</svg>