<svg class="icon__svg" preserveAspectRatio="xMidYMid meet" viewBox="0 0 60 60" xmlns="http://www.w3.org/2000/svg" xmlns:xlink="http://www.w3.org/1999/xlink" version="1.1">
  <title>notes-panel</title>
  <g id="icon_heart">
    <path class="cls-1" d="M45.16,34.58a.83.83,0,0,1,1.19,0,.87.87,0,0,1,.26.68v15.3a5,5,0,0,1-4.93,5.06H5.08A4.74,4.74,0,0,1,1.55,54.1,4.91,4.91,0,0,1,.09,50.51V13.38A4.91,4.91,0,0,1,1.55,9.8,4.72,4.72,0,0,1,5.08,8.32H33.53a.71.71,0,0,1,.72.53.81.81,0,0,1-.2,1l-3.32,3.38a.69.69,0,0,1-.53.2H5.08V50.51H41.62v-12a.73.73,0,0,1,.22-.53ZM30.85,44.39l-9.35,1a4.34,4.34,0,0,1-4.79-3.86,4.49,4.49,0,0,1,0-1l1-9.49L45.06,3.36a6.08,6.08,0,0,1,8.62,0L58.14,7.9a6,6,0,0,1,1.77,4.37,6,6,0,0,1-1.77,4.39Zm11-30.58L22.53,33.43l-.73,6.85,6.75-.74L47.86,19.93ZM50.14,7a1.1,1.1,0,0,0-1.55,0l-3.22,3.27,6,6.11,3.22-3.27a1,1,0,0,0,.31-.79,1.07,1.07,0,0,0-.31-.79Z"/>
  </g>
</svg>