<svg class="icon__svg" preserveAspectRatio="xMidYMid meet" viewBox="0 0 60 60" xmlns="http://www.w3.org/2000/svg" xmlns:xlink="http://www.w3.org/1999/xlink" version="1.1">
  <title>plans</title>
  <g id="icon_plans">
    <path class="cls-1" d="M10.94,31.2l6.29,4.05a1.32,1.32,0,0,0,1.84-.42A1.39,1.39,0,0,0,18.66,33l-6.3-4.05a1.32,1.32,0,0,0-1.84.43A1.37,1.37,0,0,0,10.94,31.2Z"/>
    <path class="cls-1" d="M23.87,42.6,12.36,35.19a1.32,1.32,0,0,0-1.84.42,1.38,1.38,0,0,0,.42,1.88l11.51,7.4a1.23,1.23,0,0,0,.71.21,1.33,1.33,0,0,0,1.13-.63A1.37,1.37,0,0,0,23.87,42.6Z"/>
    <path class="cls-1" d="M56.45,16.5s0-.07,0-.11a1.89,1.89,0,0,0-.09-.21.76.76,0,0,0-.08-.11,1,1,0,0,0-.13-.16.52.52,0,0,0-.11-.1l-.12-.1L32.71.79a5.06,5.06,0,0,0-5.42,0h0L16.92,7.47a1.24,1.24,0,0,0-.39.25l-12.41,8-.12.1a.52.52,0,0,0-.11.1,1,1,0,0,0-.13.16.76.76,0,0,0-.08.11,1.89,1.89,0,0,0-.09.21s0,.08,0,.11a1.41,1.41,0,0,0,0,.35v23A6,6,0,0,0,6.23,45L29.29,59.79l0,0,0,0a1.08,1.08,0,0,0,.19.08l.1,0a1.25,1.25,0,0,0,.7,0l.1,0a1.08,1.08,0,0,0,.19-.08l0,0,0,0L53.5,45.12a6.54,6.54,0,0,0,3-5.54V16.85A1.41,1.41,0,0,0,56.45,16.5Zm-39-6.15L40.11,24.94,35.2,28.1,30,31.44,24.8,28.1,7.33,16.85ZM28.72,3.09a2.37,2.37,0,0,1,2.56,0L52.67,16.85,42.61,23.33,19.94,8.74ZM6.17,39.9V19.32L28.66,33.8V56.18l-21-13.52A3.26,3.26,0,0,1,6.17,39.9Zm45.9,2.93L31.34,56.18V33.8L53.83,19.32V39.58A3.84,3.84,0,0,1,52.07,42.83Z"/>
  </g>
</svg>
