<svg class="icon__svg" preserveAspectRatio="xMidYMid meet" viewBox="0 0 60 60" xmlns="http://www.w3.org/2000/svg" xmlns:xlink="http://www.w3.org/1999/xlink" version="1.1">
  <g>
    <path class="st1" d="M30,0c5.3,0,10.5,1.4,15,4c4.5,2.6,8.3,6.4,10.9,10.9c2.7,4.5,4.1,9.7,4.1,15c0,5.3-1.4,10.5-4.1,15
      c-2.6,4.5-6.4,8.3-10.9,10.9c-4.5,2.7-9.7,4.1-15,4c-5.3,0-10.5-1.4-15-4C10.5,53.3,6.7,49.5,4.1,45C1.4,40.5,0,35.3,0,30
      c0-5.3,1.4-10.5,4.1-15C6.7,10.5,10.5,6.7,15,4.1C19.5,1.4,24.7,0,30,0z M30,54.2c4.3,0,8.4-1.1,12.1-3.3c3.7-2.1,6.7-5.2,8.8-8.9
      c4.4-7.5,4.4-16.7,0-24.2c-2.1-3.6-5.2-6.7-8.8-8.8C38.4,6.9,34.3,5.8,30,5.8c-4.3,0-8.4,1.1-12.1,3.3c-3.7,2.1-6.7,5.2-8.8,8.8
      c-4.4,7.5-4.4,16.7,0,24.2c2.1,3.7,5.2,6.7,8.8,8.8C21.6,53.1,25.7,54.2,30,54.2z"/>
  </g>
</svg>
