<svg class="icon__svg" preserveAspectRatio="xMidYMid meet" viewBox="0 0 60 60" xmlns="http://www.w3.org/2000/svg" xmlns:xlink="http://www.w3.org/1999/xlink" version="1.1">
  <g>
    <path class="st1" d="M30,0.2c5.2,0,10.4,1.4,14.9,4c4.5,2.6,8.3,6.4,10.9,10.9c2.7,4.5,4.1,9.7,4,14.9c0,5.2-1.4,10.4-4,14.9
      c-2.6,4.5-6.4,8.3-10.9,10.9c-4.5,2.7-9.7,4.1-14.9,4c-5.2,0-10.4-1.4-14.9-4c-4.5-2.6-8.3-6.4-10.9-10.9c-2.7-4.5-4.1-9.7-4-14.9
      c0-5.2,1.4-10.4,4-14.9c2.6-4.5,6.4-8.3,10.9-10.9C19.6,1.5,24.7,0.1,30,0.2z M30,54.1c4.3,0,8.4-1.1,12.1-3.2
      c3.6-2.1,6.6-5.2,8.7-8.8c2.2-3.6,3.3-7.8,3.3-12c0-4.2-1.1-8.4-3.3-12c-2.1-3.6-5.1-6.7-8.7-8.8c-7.4-4.3-16.6-4.3-24.1,0
      c-3.6,2.1-6.7,5.1-8.8,8.8c-4.3,7.4-4.4,16.6,0,24c2.1,3.6,5.1,6.7,8.8,8.8C21.6,52.9,25.7,54.1,30,54.1z M20.4,28.1
      c-2.1,0-3.8-1.7-3.8-3.8c0-1,0.4-2,1.1-2.7c1.4-1.5,3.8-1.5,5.3-0.1c0,0,0.1,0.1,0.1,0.1c1.5,1.5,1.5,3.8,0.1,5.3c0,0,0,0-0.1,0.1
      C22.4,27.7,21.4,28.1,20.4,28.1z M30,35.8c4.8,0,9.4,2.1,12.5,5.9c0.5,0.6,0.7,1.3,0.6,2c-0.1,0.7-0.4,1.4-1,1.9
      c-0.5,0.5-1.2,0.7-1.9,0.7c-0.8,0-1.6-0.4-2.1-1.1c-3.8-4.5-10.5-5-14.9-1.2c-0.4,0.4-0.9,0.8-1.2,1.2c-0.9,1.2-2.7,1.5-3.9,0.5
      c-0.1,0-0.1-0.1-0.1-0.1c-0.6-0.5-1-1.2-1-2c-0.1-0.7,0.1-1.5,0.6-2C20.5,37.9,25.1,35.7,30,35.8z M39.6,20.4
      c2.1,0,3.8,1.7,3.9,3.8c0,1-0.4,2-1.2,2.8c-1.5,1.5-3.9,1.5-5.4,0s-1.5-3.9,0-5.4C37.6,20.8,38.6,20.3,39.6,20.4L39.6,20.4z"/>
  </g>
</svg>