<svg class="icon__svg" preserveAspectRatio="xMidYMid meet" viewBox="0 0 60 60" xmlns="http://www.w3.org/2000/svg" xmlns:xlink="http://www.w3.org/1999/xlink" version="1.1">
  <g>
    <path class="st1" d="M29.9,0.2c5.3,0,10.4,1.4,14.9,4c4.5,2.6,8.3,6.4,10.9,10.9c2.7,4.5,4.1,9.7,4,14.9c0,5.3-1.4,10.4-4,14.9
      c-2.6,4.5-6.4,8.3-10.9,10.9c-4.5,2.7-9.7,4.1-14.9,4c-5.3,0-10.4-1.4-14.9-4c-4.5-2.6-8.3-6.4-10.9-10.9C1.4,40.5,0,35.4,0,30.1
      c0-5.3,1.4-10.4,4-14.9C6.7,10.6,10.4,6.9,15,4.3C19.5,1.6,24.6,0.2,29.9,0.2z M29.9,54.2c4.3,0,8.5-1.1,12.1-3.2
      c3.6-2.1,6.6-5.2,8.7-8.8c2.2-3.6,3.3-7.8,3.3-12c0-4.2-1.1-8.4-3.3-12c-2.1-3.6-5.1-6.7-8.7-8.8c-7.5-4.3-16.7-4.3-24.1,0
      c-3.6,2.1-6.7,5.2-8.8,8.8c-4.3,7.4-4.4,16.6,0,24.1c2.1,3.6,5.2,6.7,8.8,8.8C21.5,53.1,25.6,54.2,29.9,54.2z M20.3,28.2
      c-2.1,0-3.8-1.7-3.9-3.8c0-1,0.4-2,1.1-2.8c1.4-1.5,3.8-1.5,5.3-0.1c0,0,0.1,0.1,0.1,0.1c1.5,1.5,1.5,3.9,0.1,5.3c0,0,0,0-0.1,0.1
      C22.3,27.8,21.3,28.2,20.3,28.2z M40.5,37.8c1.6,0,2.9,1.3,2.9,2.9c0,0,0,0,0,0c0,1.6-1.3,2.9-2.9,2.9H19.2
      c-1.6,0-2.8-1.3-2.8-2.9c0-1.6,1.3-2.9,2.8-2.9c0,0,0,0,0.1,0H40.5z M39.5,20.5c2.1,0,3.8,1.7,3.9,3.8c0,1-0.4,2-1.2,2.8
      c-1.5,1.5-3.9,1.5-5.4,0c-1.5-1.5-1.5-3.9,0-5.4C37.5,20.9,38.5,20.4,39.5,20.5L39.5,20.5z"/>
  </g>
</svg>
