<svg class="icon__svg" preserveAspectRatio="xMidYMid meet" viewBox="0 0 60 60" xmlns="http://www.w3.org/2000/svg" xmlns:xlink="http://www.w3.org/1999/xlink" version="1.1">
  <title>cart</title>
  <g id="icon_cart">
    <path class="cls-1" d="M59.66,10.17a1.56,1.56,0,0,0-1.19-.53H13.2L12.1,4.91a1.5,1.5,0,0,0-1.49-1.13H1.53A1.48,1.48,0,0,0,0,5.21,1.48,1.48,0,0,0,1.53,6.65H9.38l5.54,24,1,4.44s0,.08.05.12l1.27,5.46a1.5,1.5,0,0,0,1.49,1.13H52.59a1.43,1.43,0,1,0,0-2.86H20l-.63-2.71h33.8a1.51,1.51,0,0,0,1.49-1.14L60,11.37A1.38,1.38,0,0,0,59.66,10.17ZM51.89,33.34H18.67l-.75-3.25L14,12.5H56.59Z"/>
    <path class="cls-1" d="M22.29,44.33a6,6,0,1,0,6,6A6,6,0,0,0,22.29,44.33Zm0,9.17a3.17,3.17,0,1,1,3.17-3.17A3.17,3.17,0,0,1,22.29,53.5Z"/>
    <path class="cls-1" d="M47.64,44.33a6,6,0,1,0,6,6A6,6,0,0,0,47.64,44.33Zm0,9.17a3.17,3.17,0,1,1,3.17-3.17A3.17,3.17,0,0,1,47.64,53.5Z"/>
  </g>
</svg>
