<svg class="icon__svg" preserveAspectRatio="xMidYMid meet" viewBox="0 0 60 60" xmlns="http://www.w3.org/2000/svg" xmlns:xlink="http://www.w3.org/1999/xlink" version="1.1">
  <title>alert</title>
  <g id="icon_alert">
    <path class="cls-1" d="M30,0A30,30,0,1,0,60,30,30,30,0,0,0,30,0Zm0,57A27,27,0,1,1,57,30,27,27,0,0,1,30,57Z"/>
    <path class="cls-1" d="M30,40a3.89,3.89,0,0,0-4,4v.09a4,4,0,0,0,8,0V44A3.89,3.89,0,0,0,30,40Z"/>
    <path class="cls-1" d="M32.74,11.79H27.26A2.17,2.17,0,0,0,25,14.39l2.41,19.16a2.59,2.59,0,0,0,5.14,0L35,14.39A2.17,2.17,0,0,0,32.74,11.79Z"/>
  </g>
</svg>
