<svg class="icon__svg" preserveAspectRatio="xMidYMid meet" viewBox="0 0 60 60" xmlns="http://www.w3.org/2000/svg" xmlns:xlink="http://www.w3.org/1999/xlink" version="1.1">
  <title>facebook</title>
  <g id="icon_facebook">
    <path class="cls-1" d="M56.69,0H3.31A3.31,3.31,0,0,0,0,3.31V56.69A3.31,3.31,0,0,0,3.31,60H32.05V36.76H24.23v-9h7.82V21c0-7.75,4.73-12,11.64-12a63.84,63.84,0,0,1,7,.36v8.1H45.89c-3.76,0-4.49,1.79-4.49,4.41v5.78h9l-1.17,9H41.4V60H56.69A3.31,3.31,0,0,0,60,56.69V3.31A3.31,3.31,0,0,0,56.69,0Z"/>
  </g>
</svg>
